<?xml version="1.0" encoding="utf-8"?>
<!-- Generator: Adobe Illustrator 30.5.1, SVG Export Plug-In . SVG Version: 9.03 Build 0)  -->
<svg version="1.1" id="Layer_1" xmlns="http://www.w3.org/2000/svg" xmlns:xlink="http://www.w3.org/1999/xlink" x="0px" y="0px"
	 viewBox="0 0 864 576" style="enable-background:new 0 0 864 576;" xml:space="preserve">
<rect style="fill:#012FFB;" width="864" height="576"/>
<g>
	<g>
		<g>
			<g>
				<path style="fill:#FFFFFF;" d="M211.953,267.828c-11.139,0-20.177,9.028-20.177,20.166s9.039,20.177,20.177,20.177
					s20.166-9.039,20.166-20.177S223.092,267.828,211.953,267.828z M211.953,300.263c-6.778,0-12.268-5.49-12.268-12.268
					c0-6.778,5.49-12.268,12.268-12.268c6.778,0,12.268,5.49,12.268,12.268C224.221,294.773,218.731,300.263,211.953,300.263z"/>
			</g>
		</g>
		<g>
			<g>
				<path style="fill:#FFFFFF;" d="M180.285,297.495h-10.193v32.361h32.361v-10.193h-22.168V297.495z M170.092,246.144v32.361
					h10.193v-22.168h22.168v-10.193H170.092z M243.61,319.663h-22.168v10.193h32.361v-32.361H243.61V319.663z M221.442,246.144
					v10.193h22.168v22.168h10.193v-32.361H221.442z"/>
			</g>
		</g>
		<g>
			<g>
				<path style="fill:#FFFFFF;" d="M317.082,303.104h-19.306l-3.194,9.236h-10.208l17.431-48.542h11.319l17.431,48.542h-10.278
					L317.082,303.104z M314.444,295.327l-7.014-20.278l-7.014,20.278H314.444z"/>
			</g>
		</g>
		<g>
			<g>
				<path style="fill:#FFFFFF;" d="M346.666,263.868v30c0,3.288,0.856,5.799,2.57,7.535c1.712,1.736,4.12,2.604,7.222,2.604
					c3.147,0,5.578-0.868,7.292-2.604c1.712-1.736,2.57-4.247,2.57-7.535v-30h9.792v29.931c0,4.121-0.892,7.604-2.674,10.451
					c-1.783,2.848-4.167,4.989-7.153,6.424c-2.986,1.436-6.309,2.153-9.965,2.153c-3.611,0-6.887-0.718-9.826-2.153
					c-2.941-1.435-5.267-3.576-6.979-6.424c-1.713-2.847-2.569-6.33-2.569-10.451v-29.931H346.666z"/>
			</g>
		</g>
		<g>
			<g>
				<path style="fill:#FFFFFF;" d="M418.472,263.868v7.848h-12.917v40.625h-9.722v-40.625h-12.917v-7.848H418.472z"/>
			</g>
		</g>
		<g>
			<g>
				<path style="fill:#FFFFFF;" d="M435.556,309.632c-3.797-2.129-6.806-5.081-9.028-8.854c-2.223-3.772-3.333-8.044-3.333-12.812
					c0-4.723,1.111-8.97,3.333-12.743c2.222-3.773,5.231-6.725,9.028-8.854c3.796-2.129,7.962-3.194,12.5-3.194
					c4.583,0,8.761,1.065,12.535,3.194c3.772,2.13,6.759,5.081,8.958,8.854c2.198,3.773,3.299,8.021,3.299,12.743
					c0,4.769-1.101,9.04-3.299,12.812c-2.199,3.773-5.197,6.726-8.993,8.854c-3.797,2.13-7.963,3.194-12.5,3.194
					C443.518,312.827,439.352,311.762,435.556,309.632z M455.764,302.167c2.223-1.319,3.959-3.205,5.209-5.659
					s1.875-5.301,1.875-8.542c0-3.24-0.625-6.077-1.875-8.507c-1.25-2.431-2.986-4.294-5.209-5.591
					c-2.222-1.296-4.791-1.944-7.708-1.944s-5.498,0.648-7.743,1.944c-2.246,1.297-3.993,3.16-5.243,5.591
					c-1.25,2.43-1.875,5.267-1.875,8.507c0,3.241,0.625,6.088,1.875,8.542s2.997,4.34,5.243,5.659
					c2.245,1.319,4.826,1.979,7.743,1.979S453.542,303.486,455.764,302.167z"/>
			</g>
		</g>
		<g>
			<g>
				<path style="fill:#FFFFFF;" d="M540.14,263.868l-17.778,48.473h-11.806l-17.777-48.473h10.416l13.334,38.542l13.264-38.542
					H540.14z"/>
			</g>
		</g>
		<g>
			<g>
				<path style="fill:#FFFFFF;" d="M555.696,271.715v12.152h16.32v7.709h-16.32v12.847h18.403v7.917h-28.125v-48.542h28.125v7.917
					H555.696z"/>
			</g>
		</g>
		<g>
			<g>
				<path style="fill:#FFFFFF;" d="M607.918,312.34l-10.694-18.889h-4.584v18.889h-9.722v-48.473h18.194
					c3.75,0,6.944,0.66,9.583,1.979c2.64,1.319,4.618,3.102,5.938,5.347c1.32,2.246,1.979,4.757,1.979,7.535
					c0,3.194-0.927,6.076-2.777,8.646c-1.853,2.569-4.607,4.341-8.265,5.312l11.598,19.653H607.918z M592.64,286.16h8.125
					c2.64,0,4.606-0.636,5.903-1.91c1.296-1.272,1.944-3.043,1.944-5.312c0-2.222-0.648-3.946-1.944-5.174
					c-1.297-1.226-3.264-1.84-5.903-1.84h-8.125V286.16z"/>
			</g>
		</g>
		<g>
			<g>
				<path style="fill:#FFFFFF;" d="M637.155,263.868v48.473h-9.722v-48.473H637.155z"/>
			</g>
		</g>
		<g>
			<g>
				<path style="fill:#FFFFFF;" d="M676.669,263.868v7.848H656.46v12.431h15.486v7.708H656.46v20.486h-9.722v-48.473H676.669z"/>
			</g>
		</g>
		<g>
			<g>
				<path style="fill:#FFFFFF;" d="M684.775,272.567c-1.012-0.969-1.517-2.176-1.517-3.622c0-1.445,0.505-2.653,1.517-3.623
					c1.011-0.97,2.28-1.455,3.808-1.455c1.526,0,2.796,0.485,3.808,1.455c1.011,0.97,1.517,2.177,1.517,3.623
					c0,1.445-0.506,2.652-1.517,3.622c-1.012,0.971-2.282,1.455-3.808,1.455C687.055,274.023,685.786,273.538,684.775,272.567z
					 M692.856,278.109v34.305h-8.669v-34.305H692.856z"/>
			</g>
		</g>
	</g>
</g>
<g>
</g>
<g>
</g>
<g>
</g>
<g>
</g>
<g>
</g>
<g>
</g>
<g>
</g>
<g>
</g>
<g>
</g>
<g>
</g>
<g>
</g>
</svg>
